<?xml version="1.0" encoding="UTF-8"?>
<svg width="512px" height="512px" viewBox="0 0 512 512" version="1.1" xmlns="http://www.w3.org/2000/svg" xmlns:xlink="http://www.w3.org/1999/xlink">
    <title>botmate</title>
    <defs>
        <radialGradient cx="50%" cy="50%" fx="50%" fy="50%" r="50%" id="radialGradient-1">
            <stop stop-color="#181818" offset="0.0682910839%"></stop>
            <stop stop-color="#2D2B2B" offset="51.4723558%"></stop>
            <stop stop-color="#181818" offset="100%"></stop>
        </radialGradient>
    </defs>
    <g id="botmate" stroke="none" stroke-width="1" fill="none" fill-rule="evenodd">
        <rect fill="#FFFFFF" x="0" y="0" width="512" height="512"></rect>
        <rect id="Rectangle" fill="url(#radialGradient-1)" x="0" y="0" width="512" height="512"></rect>
        <path d="M234.474968,160.125832 L178.322127,204.963625 C154.763203,223.77434 142.983602,233.182492 145.282897,243.683185 L145.405232,244.202911 C148.024717,254.639337 162.956339,258.651842 192.819304,266.676853 C209.414299,271.13364 217.713051,273.363431 221.606051,279.669994 L221.803906,280.002507 C225.560359,286.384514 223.422971,294.378789 219.150981,310.367338 L218.03352,314.544702 C206.187317,358.87227 200.26533,381.033259 211.671515,388.192061 C223.077422,395.348068 241.227109,380.857223 277.526483,351.875533 L333.67821,307.036623 C357.236855,288.225908 369.016177,278.82055 366.717161,268.317063 L366.597333,267.797337 C363.975062,257.360911 349.043997,253.348405 319.181868,245.326189 C302.587152,240.866607 294.2884,238.636817 290.3954,232.330254 L290.197545,231.997741 C286.441092,225.615734 288.57848,217.621459 292.85047,201.635704 L293.967931,197.455545 C305.811348,153.129096 311.735843,130.96615 300.327149,123.808467 C288.921243,116.651062 270.771556,131.142745 234.474968,160.125832 Z" id="Path" fill="#F4F5F9"></path>
    </g>
</svg>