<?xml version="1.0" encoding="UTF-8"?>
<svg width="424px" height="512px" viewBox="0 0 424 512" version="1.1" xmlns="http://www.w3.org/2000/svg" xmlns:xlink="http://www.w3.org/1999/xlink">
    <title>botmate</title>
    <g id="botmate" stroke="none" stroke-width="1" fill="none" fill-rule="evenodd">
        <path d="M170.292169,72.837411 L62.7923599,158.497672 C17.6908169,194.43456 -4.86022141,212.408343 -0.458418358,232.469368 L-0.224217468,233.462277 C4.7905624,253.400524 33.3758746,261.066206 90.5459656,276.39757 C122.315663,284.912029 138.202912,289.171928 145.655729,301.220287 L146.034505,301.855535 C153.225913,314.048027 149.134066,329.320671 140.955706,359.865958 L138.816423,367.846595 C116.137881,452.532097 104.800744,494.86951 126.636909,508.546026 C148.472541,522.217204 183.218564,494.533202 252.710609,439.165197 L360.208284,353.502802 C405.309294,317.565913 427.859798,299.597469 423.458529,279.531105 L423.229129,278.538196 C418.209015,258.599949 389.624769,250.934267 332.456279,235.608241 C300.687115,227.088444 284.799866,222.828545 277.347049,210.780186 L276.968273,210.144938 C269.776865,197.952446 273.868712,182.679802 282.047072,152.139853 L284.186355,144.153878 C306.859562,59.4705114 318.2015,17.1293619 296.360534,3.45498083 C274.524902,-10.2188664 239.778879,17.4667373 170.292169,72.837411 Z" id="Path" 
        fill="#fafafa"></path>
    </g>
</svg>